<svg xmlns="http://www.w3.org/2000/svg" viewBox="0 0 173.94 173.94"><defs><style>.cls-1{fill:#bc4940;}.cls-1,.cls-2{stroke:#424242;stroke-miterlimit:10;}.cls-2{fill:#fff;}.cls-3{fill:#0088a8;}.cls-4{fill:#424242;}.cls-5{fill:#006e90;}</style></defs><g id="OBJECTS"><path class="cls-1" d="M107,137.28c-18.88,15.49-36.27,3.94-41.42-.22-7.54,3.48-15.67,5.7-21.43,20.52H128C122.34,143.07,114.43,140.64,107,137.28Z"/><path class="cls-2" d="M107,137.28a33.84,33.84,0,0,1-6.47-3.65C91.63,127,94,114.06,94,114.06l-14.94-.18-1,.18s2.39,12.93-6.52,19.57a32.58,32.58,0,0,1-6,3.43C70.31,143.56,86.08,164.94,107,137.28Z"/><path class="cls-2" d="M122.18,90.29c-.22-2.56-1.27-4.71-4.25-4a5.36,5.36,0,0,0-1.83,1c.38-2.09.68-4.22.87-6.38,1.93-21.15-.15-46.35-27.41-46.35l-5,.94c-27.26,0-31.33,24.26-29.41,45.41.19,2.16.49,4.29.87,6.38a5.36,5.36,0,0,0-1.83-1c-3-.69-4,1.46-4.25,4-.39,4.62,2.69,8.94,7.13,11.19a13.35,13.35,0,0,0,3.92,1c5.06,9.82,13.3,16.41,25.06,15.81,11.75.6,20-6,25-15.81a13.27,13.27,0,0,0,3.92-1C119.49,99.23,122.57,94.91,122.18,90.29Z"/><path d="M63.33,69.21a7.32,7.32,0,0,1,1.82-3.33,7.57,7.57,0,0,1,3.32-2,9.2,9.2,0,0,1,3.63-.27A7.16,7.16,0,0,1,75.62,65a16.23,16.23,0,0,1-3.13,1.76,24.93,24.93,0,0,1-2.91,1l-2.74.78A15.8,15.8,0,0,1,63.33,69.21Z"/><path d="M93.51,97.4c-8.51,7-14.68,0-14.68,0Z"/><path d="M108.82,69.21a15.8,15.8,0,0,1-3.51-.69l-2.74-.78a24.93,24.93,0,0,1-2.91-1A16.23,16.23,0,0,1,96.53,65a7.16,7.16,0,0,1,3.52-1.37,9.26,9.26,0,0,1,3.64.27,7.48,7.48,0,0,1,3.31,2A7.23,7.23,0,0,1,108.82,69.21Z"/><path d="M53.41,91.41a4.08,4.08,0,0,1,2.07,1A8.64,8.64,0,0,1,57,94.16a8.77,8.77,0,0,1,1,2,19.46,19.46,0,0,1,.66,2.17,10.15,10.15,0,0,1-1.36-1.82c-.39-.63-.74-1.24-1.17-1.82s-.84-1.17-1.28-1.74A9.36,9.36,0,0,0,53.41,91.41Z"/><path d="M118.74,91.41A9.36,9.36,0,0,0,117.23,93c-.44.57-.88,1.14-1.28,1.74s-.78,1.19-1.17,1.82a10.15,10.15,0,0,1-1.36,1.82,19.46,19.46,0,0,1,.66-2.17,8.77,8.77,0,0,1,1-2,8.64,8.64,0,0,1,1.54-1.71A4.08,4.08,0,0,1,118.74,91.41Z"/><path d="M72.54,83.2a2.62,2.62,0,1,1,0-3.7A2.62,2.62,0,0,1,72.54,83.2Z"/><path d="M99.64,83.2a2.62,2.62,0,1,0,0-3.7A2.62,2.62,0,0,0,99.64,83.2Z"/><path d="M87.77,73.9c.4,2.18.07,4.43.3,6.54.13,1,.4,2.14.57,3.2a18.24,18.24,0,0,0,.77,3.12A9.81,9.81,0,0,1,90,90.15a2.65,2.65,0,0,1-.78,1.77,3,3,0,0,1-3.52.26,7.74,7.74,0,0,1-1.37-1,13.47,13.47,0,0,1-2-2.61,17.16,17.16,0,0,0,2.38,2.22A6.48,6.48,0,0,0,86,91.6a2.14,2.14,0,0,0,1.37.24,2.3,2.3,0,0,0,1.24-.56,1.7,1.7,0,0,0,.45-1.19,9.41,9.41,0,0,0-.62-3,17.44,17.44,0,0,1-.76-3.27c-.12-1.1-.33-2.14-.38-3.3C87.24,78.22,87.78,76.1,87.77,73.9Z"/><path class="cls-3" d="M47.85,65.54c.36,1.55,3,10.43,3.56,12,2,4.94,2.23,9.25,6.67,12.39-.67-.48-.47-8.15-.54-9.24-.25-3.66-.49-7.32-.74-11a2.05,2.05,0,0,1,.1-1c.58-1.18,2.44-.2,3.68-.64a47.85,47.85,0,0,1,.33-10.83A22.06,22.06,0,0,1,63,50.09c1.85-3.46,4.13-10.17,7.67-11.87,5.47-2.64,12.87-4.61,18.87-3.71,3.56.54,8.5.75,11.93,1.89,3.92,1.29,6.4,4.6,8.39,8.3,2.31,4.31,2.93,12.71,3.27,17.51l2.34.06c.26,4.27.12,8.36.12,12.62.06,4.69-.35,9.37-.3,14.07,3-4.11,4.76-11.69,5.93-16.67A54.59,54.59,0,0,0,119.68,42c-1.14-3.41-5.15-3.51-8.2-5.66a52.15,52.15,0,0,0-8.81-4.94c-1.31-.46-3,.72-3.8,0-6.32-5.56-14-3.92-18-3.45-6.41.73-10.62.5-16.4,3.45-8.25,4.21-14.58,8.58-16,17.43C47.35,55.66,46.31,58.86,47.85,65.54Z"/><path class="cls-4" d="M47.38,65.45c.68,2.92,1.61,5.8,2.48,8.66.38,1.23.76,2.47,1.22,3.68.81,2.12,1.36,4.33,2.22,6.42a12.89,12.89,0,0,0,4.4,5.72,1,1,0,0,0,.68.21c.17-.06.26-.13.08-.27a2.79,2.79,0,0,1-.2-.87c-.08-.58-.12-1.16-.15-1.75C58,85.8,58,84.35,58,82.9c0-3.77-.39-7.54-.64-11.3a15.79,15.79,0,0,1-.13-2.27,1,1,0,0,1,.93-1A12.71,12.71,0,0,0,61,68.28a.13.13,0,0,0,.1-.14,46.94,46.94,0,0,1,.47-11.66,22.94,22.94,0,0,1,1.39-5c.51-1.21,1.17-2.37,1.72-3.57a39,39,0,0,1,3.78-7,8.14,8.14,0,0,1,2.48-2.34,29.7,29.7,0,0,1,4.24-1.78,36.68,36.68,0,0,1,9.75-2.15,52.23,52.23,0,0,1,9.42.7c3.09.35,6.53.61,9.23,2.3a17.76,17.76,0,0,1,5.77,6.85,26.49,26.49,0,0,1,2.45,8.65c.46,3,.7,6,.91,9,0,.21.53.32.67.33l2.35.06-.67-.33c.26,4.43.11,8.87.12,13.31s-.35,8.88-.31,13.32c0,.26.77.56.93.33a24.76,24.76,0,0,0,3.09-6.3A76.92,76.92,0,0,0,121,75.41a79,79,0,0,0,1.67-8.18,54,54,0,0,0,.44-9.25,56.64,56.64,0,0,0-1.18-9.36c-.34-1.56-.74-3.11-1.2-4.64a9.15,9.15,0,0,0-1.49-3.46c-1.36-1.59-3.5-2.21-5.33-3a57.08,57.08,0,0,1-5.44-3.3,31,31,0,0,0-5.64-2.89,6.31,6.31,0,0,0-3.11.12c-.66.1-1.15-.58-1.65-.95a17.55,17.55,0,0,0-1.64-1.05c-4-2.27-8.67-2.52-13.17-2-2.18.25-4.35.52-6.54.72a47.91,47.91,0,0,0-7.34,1.06,32,32,0,0,0-7.22,3A47.74,47.74,0,0,0,56.11,36a20.07,20.07,0,0,0-7.56,10.18,29.86,29.86,0,0,0-.78,3.76c-.24,1.38-.49,2.75-.7,4.12a29.62,29.62,0,0,0-.39,7.16,30.9,30.9,0,0,0,.7,4.27c.06.28,1,.46.95.18a27.21,27.21,0,0,1-.72-7.89c.17-2.54.69-5,1.11-7.55a23.13,23.13,0,0,1,2-6.68,18.59,18.59,0,0,1,3.72-5,30.49,30.49,0,0,1,5.16-3.94A54.86,54.86,0,0,1,66,31.08a26.63,26.63,0,0,1,7.31-2c2.59-.36,5.2-.5,7.8-.81,4-.46,8-1,11.89.16A14.43,14.43,0,0,1,96.55,30a15.46,15.46,0,0,1,1.61,1.18,2.56,2.56,0,0,0,1.3.7c1.06.17,2.12-.54,3.15-.26a13.23,13.23,0,0,1,2.53,1.18,60.23,60.23,0,0,1,5.57,3.33,17.93,17.93,0,0,0,2.61,1.52c1,.46,2,.82,2.94,1.29a6.08,6.08,0,0,1,2.33,1.81,12.48,12.48,0,0,1,1.47,4,57.18,57.18,0,0,1,1.78,9,53.77,53.77,0,0,1-1.08,18.45c-1.08,4.65-2.17,9.43-4.24,13.77a19.73,19.73,0,0,1-1.65,2.85l.92.33c0-4.53.33-9,.31-13.57s.13-8.79-.13-13.17c0-.21-.53-.32-.67-.33L113,62l.67.32c-.2-2.83-.43-5.66-.83-8.47a30.35,30.35,0,0,0-2.13-8.39,20,20,0,0,0-5.14-7c-2.43-2-5.42-2.75-8.48-3.21-1.61-.23-3.23-.4-4.85-.58s-3.18-.47-4.77-.55a31.9,31.9,0,0,0-10.05,1.27A41.15,41.15,0,0,0,72.65,37,12.66,12.66,0,0,0,69,38.84c-2,1.72-3.24,4.32-4.36,6.66-1.44,3-3.11,6-3.83,9.35A45.49,45.49,0,0,0,60.1,68l.09-.13c-1.33.42-4-.78-3.88,1.56.11,2.75.37,5.5.55,8.25.11,1.56.22,3.11.22,4.68s0,3,.07,4.43c0,.7.06,1.41.16,2.11a1.64,1.64,0,0,0,.39,1.06l.76-.06a12.18,12.18,0,0,1-4.1-5.25c-.88-2-1.42-4.21-2.19-6.29-1-2.82-1.86-5.71-2.7-8.59-.4-1.36-.82-2.73-1.14-4.11C48.27,65.35,47.31,65.17,47.38,65.45Z"/><path d="M50.26,65.18h.18a.69.69,0,0,0,.2,0l.18-.05L51,65A.3.3,0,0,0,51,65v-.06A.14.14,0,0,0,51,64.8l-.08,0a.89.89,0,0,0-.23,0h-.17a.64.64,0,0,0-.2,0,.61.61,0,0,0-.18,0,.33.33,0,0,0-.13.07.3.3,0,0,0-.08.08v.06a.13.13,0,0,0,.09.09l.08,0a.82.82,0,0,0,.22,0Z"/><path d="M51.44,69.57c.65,0-.09-.46-.4-.46-.65,0,.09.46.4.46Z"/><path d="M56.25,64.34c.23,0,.18-.15.09-.27a1,1,0,0,0-.67-.22c-.23,0-.19.15-.09.27a1,1,0,0,0,.67.22Z"/><path d="M51.7,61.85c.68,0,.21-.41-.22-.41-.68,0-.21.41.22.41Z"/><path d="M53.93,70.07c.43,0,.9-.42.22-.42-.43,0-.91.42-.22.42Z"/><path d="M54.49,78.64c.67,0,.23-.43-.21-.43-.67,0-.23.43.21.43Z"/><path d="M51.63,74.1c.18,0,.31-.07.23-.24s-.51-.2-.66-.2-.31.07-.23.24.51.2.66.2Z"/><path d="M55.73,73.73c.13,0,.41,0,.36-.22s-.48-.18-.6-.18-.42,0-.37.22.49.18.61.18Z"/><path d="M52.82,80.72c.59,0,.57-.4,0-.4s-.57.4,0,.4Z"/><path d="M52.16,74.78V75a.1.1,0,0,0,0,.09.32.32,0,0,0,.08.09l.14.08.18.08.13,0a.81.81,0,0,0,.22,0H53a.14.14,0,0,0,.1-.08v-.17s0-.07,0-.09A.24.24,0,0,0,53,74.9a.55.55,0,0,0-.14-.09l-.18-.07-.13,0a.9.9,0,0,0-.23,0l-.09,0a.13.13,0,0,0-.09.07Z"/><path d="M58.46,66.22c.13,0,.55,0,.6-.18s-.23-.22-.36-.22-.55,0-.6.17.23.23.36.23Z"/><path d="M53.57,66.57c.14,0,.56,0,.6-.19s-.24-.22-.37-.22-.55,0-.6.2.25.21.37.21Z"/><path d="M48.64,62.23h.17a.26.26,0,0,0,.15,0,.15.15,0,0,0,.11,0,.09.09,0,0,0,0-.07.1.1,0,0,0,0-.09L49,62a.78.78,0,0,0-.2-.11l-.13,0a1,1,0,0,0-.25-.05H48.1l-.11,0a.11.11,0,0,0,0,.08A.12.12,0,0,0,48,62l.06.06.2.11.13,0a1,1,0,0,0,.25,0Z"/><path d="M114.86,55c.59,0,.58-.4,0-.4s-.59.4,0,.4Z"/><path d="M117.88,52.94c.13,0,.55,0,.6-.18s-.24-.22-.36-.22-.56,0-.61.17.24.23.37.23Z"/><path d="M120,58c.18,0,.31-.06.23-.23s-.51-.21-.66-.21-.31.06-.23.24.51.2.66.2Z"/><path d="M115.31,57.66c.68,0,.21-.41-.22-.41-.68,0-.21.41.22.41Z"/><path d="M120.3,55.06c.18,0,.31-.05.24-.23s-.5-.22-.65-.22-.32,0-.24.23.5.22.65.22Z"/><path d="M116.6,59.93c.59,0,.6-.4,0-.4s-.6.4,0,.4Z"/><path d="M117.89,55.21c.43,0,.9-.41.22-.41-.43,0-.91.41-.22.41Z"/><path d="M119.61,68.5c.19,0,.31-.07.23-.23s-.51-.2-.66-.2-.31.07-.23.24.51.19.66.19Z"/><path d="M118.11,76.19c.68,0,.21-.42-.22-.42-.68,0-.22.42.22.42Z"/><path d="M118.73,64.84c.18,0,.31,0,.23-.22s-.5-.22-.65-.22-.31,0-.23.22.5.22.65.22Z"/><path d="M122,62.2c.59,0,.58-.4,0-.4s-.58.4,0,.4Z"/><path d="M118.16,61.15c.59,0,.62-.4,0-.4s-.61.4,0,.4Z"/><path d="M117.41,69.59c.23,0,.19-.14.09-.27a.92.92,0,0,0-.66-.23c-.23,0-.19.13-.1.26a1,1,0,0,0,.67.24Z"/><path d="M118,72.84V73a.08.08,0,0,0,0,.07.26.26,0,0,0,.1.07.45.45,0,0,0,.16,0,.65.65,0,0,0,.19,0h.14a.9.9,0,0,0,.22-.06l.07,0A.12.12,0,0,0,119,73v-.18a.08.08,0,0,0,0-.07.39.39,0,0,0-.27-.1.62.62,0,0,0-.19,0h-.14a.83.83,0,0,0-.21.06l-.08,0a.14.14,0,0,0-.07.1Z"/><path class="cls-5" d="M128.45,42.14a5.11,5.11,0,0,0,1.11-4.83A24.68,24.68,0,0,1,123.21,39a40.94,40.94,0,0,1-6-1c1.26-1.34,3.14-1.93,4.54-3.17.36-.32,3-4.28,2.68-4.26-4.65.24-9.31,1.72-14,2,1.47-1,10.53-6.86,7.35-9.31-1-.74-9.07,3.68-11.52,3.18-4.9-1-6.86-5.63-12-6.12a19.07,19.07,0,0,0-12,3.92c1-2.7,3.19-5.64,4.9-7.84-4.65.49-6.86,4.9-10.29,7.59C73,26.9,69.06,27.63,64.41,29.1c-4.25,1.34-8.67,4.7-11.79,7.83-5.72,5.73-5.79,12.62-5.55,20.14.11,3.49.23,1.44,3,2.06,3.1.7,5.88,1.76,9.15,2a1.42,1.42,0,0,0,1-.16,1.53,1.53,0,0,0,.45-.87c1-4,3.29-7.22,4.92-11s2.18-4.61,6.69-4.36c3.43,0,5.63-1.22,8.08-3.43,7.62,8,17,9.42,27.38,10.77a17.19,17.19,0,0,0,4.75.12,6.64,6.64,0,0,0,4.14-2.13,15.7,15.7,0,0,0,6.19,1c.26,0,1.08,0,1-.24a10.77,10.77,0,0,0,5.45-7.42,1.43,1.43,0,0,0-.13-1.15A.6.6,0,0,0,128.45,42.14Z"/><path class="cls-5" d="M117.47,84.86c-1.54,5.06-4.43,14.15-6.34,17.59-2.71,4.87-8,15-23.89,15.84s-21.8-9.12-25.61-14.73C59.18,100,55.06,87.88,53.69,84l3.85-3.31c.91,4.67,1.23,11.58,5.28,20.1,1.5,3.16,3.79,4.82,6.77,6.68,2.64,1.63,6.58,3.64,9.75,3.66,1.86,0,2.91-.29,3.88-1.92.7-1.18.6-3.17,1.36-4,.07.34.25.64.34.95,0-.34.35-.67.42-.93.23.31.86.52,1.07.76.21-.4.7-.69.87-1.15.09.23.55.59.66.88.27-.27,1-.68,1.19-1,1.24,2.54,1.42,5.1,4.38,5.59,4.15.69,6.25-.38,9.16-2.88,3.63-3.11,6-7.41,7.89-12,.37-.9,4.64-13.16,5-20.54L118,84"/></g></svg>