<svg xmlns="http://www.w3.org/2000/svg" viewBox="0 0 173.94 173.94"><defs><style>.cls-1,.cls-3{fill:#fff;}.cls-1,.cls-2,.cls-3{stroke:#000;}.cls-1{stroke-linecap:round;stroke-linejoin:round;}.cls-2{fill:#abdbd8;}.cls-2,.cls-3{stroke-miterlimit:10;}</style></defs><g id="OBJECTS"><path class="cls-1" d="M100.48,130.87A15.29,15.29,0,0,1,98.87,129c-3.05,3-8.27,4.37-12,4.18-2.68-.14-8-1.72-10.71-4.27a14.81,14.81,0,0,1-1.38,1.62c3.31,2.93,9.8,4.55,13,4.58A21.42,21.42,0,0,0,100.48,130.87Z"/><path class="cls-1" d="M98.87,129c-5.19-6.9-3.43-16.48-3.43-16.48l-14.94-.18-1,.18s1.75,9.49-3.36,16.39c2.69,2.55,8,4.13,10.71,4.27C90.6,133.41,95.82,132,98.87,129Z"/><path class="cls-2" d="M79,133.06a15.52,15.52,0,0,1-4.16-2.49A15.89,15.89,0,0,1,73,132.13c-8.91,6.64-20.1,5.07-27.44,23.94H56.5A60.18,60.18,0,0,1,79,133.06Z"/><path class="cls-2" d="M102,132.13a15.45,15.45,0,0,1-1.49-1.26,18.28,18.28,0,0,1-4.36,2.53A60,60,0,0,1,118,156.07h11.39C122.07,137.2,110.88,138.77,102,132.13Z"/><path class="cls-1" d="M96.12,133.4a21.56,21.56,0,0,1-8.29,1.75A25.86,25.86,0,0,1,79,133.06a60.18,60.18,0,0,0-22.47,23H118A60,60,0,0,0,96.12,133.4Z"/><path d="M76.28,30.34c-2.53-3.17-8.61-2.34-12-1.53a19.32,19.32,0,0,0-12,7.92,41,41,0,0,0-6.69,12.84,22.92,22.92,0,0,0,.23,14.3c1,2.75,2.76,5.37,2.76,8.31,0,1.09-.24,2.17-.27,3.26-.11,4.51,3.1,6.72,5.2,10.19,1.7,2.81,2.65,6.6,3.9,9.67,9,22.11,30.52,21.91,49.4,13.88,5.44-2.32,9.21-9.57,11.86-14.46,1.7-3.13,2.79-6.36,4.17-9.57s3.29-5.66,2.67-9.47a6.86,6.86,0,0,1-.21-2.2,6.15,6.15,0,0,1,1-2.08,16.77,16.77,0,0,0,2.41-9.55,13.42,13.42,0,0,0-3.86-8.75c-1.44-1.3-3.37-1.57-3.85-3.76-2.34-10.7-5.7-8.6-14.89-13.28S86.44,30.19,76.28,30.34Z"/><path class="cls-3" d="M123.6,88.78c-.22-2.56-1.26-4.71-4.24-4a5.53,5.53,0,0,0-1.84,1q.58-3.15.88-6.39c1.92-21.14-3.32-42.64-30.59-42.64h-.63c-27.26,0-32.5,21.5-30.58,42.64q.3,3.24.87,6.39a5.4,5.4,0,0,0-1.83-1c-3-.69-4,1.46-4.24,4-.4,4.63,2.68,8.94,7.12,11.19a13.35,13.35,0,0,0,3.93,1c5,9.82,13.29,16.42,25,15.81,11.75.61,20-6,25-15.81a13.27,13.27,0,0,0,3.92-1C120.92,97.72,124,93.41,123.6,88.78Z"/><path d="M64.76,67.7a7.18,7.18,0,0,1,1.81-3.32,7.57,7.57,0,0,1,3.32-2,9,9,0,0,1,3.64-.27,7.13,7.13,0,0,1,3.52,1.37,15.69,15.69,0,0,1-3.14,1.75,25.08,25.08,0,0,1-2.91,1L68.26,67A15.74,15.74,0,0,1,64.76,67.7Z"/><path d="M110.24,67.7a16,16,0,0,1-3.51-.68L104,66.24a25.85,25.85,0,0,1-2.92-1A15.92,15.92,0,0,1,98,63.5a7.06,7.06,0,0,1,3.52-1.37,9.06,9.06,0,0,1,3.64.27,7.48,7.48,0,0,1,3.31,2A7.2,7.2,0,0,1,110.24,67.7Z"/><path d="M54.84,89.9a4.09,4.09,0,0,1,2.06,1,8.79,8.79,0,0,1,2.6,3.76,21.64,21.64,0,0,1,.66,2.16A9.09,9.09,0,0,1,58.8,95c-.4-.63-.75-1.24-1.17-1.82s-.84-1.17-1.28-1.73A9.83,9.83,0,0,0,54.84,89.9Z"/><path d="M120.16,89.9a9.42,9.42,0,0,0-1.51,1.59c-.44.56-.88,1.14-1.28,1.73s-.77,1.19-1.17,1.82a9.49,9.49,0,0,1-1.36,1.82,19.3,19.3,0,0,1,.66-2.16,8.83,8.83,0,0,1,1-2,9.61,9.61,0,0,1,1.54-1.71A4.12,4.12,0,0,1,120.16,89.9Z"/><path d="M74,81.7A2.62,2.62,0,1,1,74,78,2.61,2.61,0,0,1,74,81.7Z"/><path d="M101.06,81.7a2.62,2.62,0,1,0,0-3.7A2.61,2.61,0,0,0,101.06,81.7Z"/><path d="M88.54,71.11a17.1,17.1,0,0,1,1.85,4.27,35.29,35.29,0,0,1,1,4.56,43.79,43.79,0,0,1,.43,9.3l0,.23-.18.1a6.21,6.21,0,0,1-1.48.6,4.54,4.54,0,0,1-1.6.06,10.07,10.07,0,0,1-2.89-1,12.49,12.49,0,0,0,2.92.46,4.45,4.45,0,0,0,2.63-.84l-.2.33c0-1.52,0-3-.13-4.57s-.22-3-.41-4.57-.4-3-.69-4.53A24.37,24.37,0,0,0,88.54,71.11Z"/><path d="M127.48,52.14c2.82,0,2.62-9.65-2.65-8.82,4.15-4.26,3.1-12.08-.59-16-4.57-4.91-12.58-2.3-18.83-2.91C98.22,23.65,92,19.11,85,18.12c-13.1-1.86-24.42,6.61-24.42,20.1,3.32,4.27,4.07,8.43,8.64,10.75,2.14,1.09,6.07,4.54,8.28,4.44-.94-1.53-3-3.29-2.49-5.17,4.37,1.92,9.72,7.52,14.89,5.53-2.31-1.09-5.68-1.57-7-4,2.46,2,6.27,2.65,9.21,3.73a22.89,22.89,0,0,0,8.44,1.28c4.42,0,10.07.51,12.93-3.37a10.08,10.08,0,0,1,1.85,1.29c1.83,13.72,0,30.86-1.41,34.44-2.94,7.21-6,11.6-11.9,16.43-2.54,2.06-4.86,2.63-8,1.29-2.32-1-2.38-2.37-3.44-6a2.38,2.38,0,0,1-.47.18,12,12,0,0,1-2.47.29A7.55,7.55,0,0,1,85.3,99c.1,4.21-1.94,5.75-4.54,5.82-11.14.3-16-8.5-18.42-17.59-2.85-10.48-4-26.75-1.77-36.43.68-2.92-4.91,4-5.8,4.17a84.26,84.26,0,0,0-.45,10.89,152.78,152.78,0,0,0,3.17,27.8c1.19,5.82,2,12.16,5.53,17.12s9.53,8.28,15.45,9.82a31,31,0,0,0,9.1,1c8-.36,11.84-.91,17.71-4.13a24,24,0,0,0,6.12-4.23,20.42,20.42,0,0,0,4-7.12c3.59-9.78,4.19-20,4.67-30.25.13-2.68-.2-11.31-.74-17.79.85,1.64,1.55,3.34,2.15,4.84.9,2.23.82,3.14,2.75,1.34s2.16-3.68,2.08-6c.53,1.2.49,2.57.93,3.73,1.82-1.42,2.15-3.32,1.77-5.55C128.8,55.36,128.35,52.86,127.48,52.14Z"/><path d="M88.19,95.09c5.15,6.6,16.26-.58,17.63-1.71-2.91-1.57-4.21-6-10.06-6a5.17,5.17,0,0,0-4.28,2.12c-1.64.42-2.52,1.14-5.39,0-.07,0-.44-1.07-.61-1.24a3.09,3.09,0,0,0-1.15-.73,10.72,10.72,0,0,0-4.82-.23,6,6,0,0,0-3.81,1.87c-1.08,1.33-1.84,2.69-3.69,3-.14,0-1.32,0-1.33.09C70.24,98,85.22,98.63,88.19,95.09Z"/><path d="M54.77,55c0-.24,0-.47.07-.71C54.59,54.81,54.6,55,54.77,55Z"/></g></svg>