<svg xmlns="http://www.w3.org/2000/svg" xmlns:xlink="http://www.w3.org/1999/xlink" viewBox="0 0 173.94 173.94"><defs><style>.cls-1{fill:none;}.cls-1,.cls-2,.cls-3,.cls-4{stroke:#000;}.cls-1,.cls-3,.cls-4{stroke-miterlimit:10;}.cls-2,.cls-6{fill:#fff;}.cls-2{stroke-linecap:round;stroke-linejoin:round;}.cls-3{fill:#96cf68;}.cls-4{fill:#c3e2a8;}.cls-5{clip-path:url(#clip-path);}.cls-7{clip-path:url(#clip-path-2);}.cls-8{fill:#bc4940;opacity:0.2;}.cls-9{fill:#dbe1bd;}</style><clipPath id="clip-path"><path class="cls-1" d="M58.83,132.34a33.64,33.64,0,0,0-5.26,3.1C49.69,138.28,46,142.58,43,150.31h30c-2.43-7.06-4.72-14.18-7-21.3C63.73,130.2,61.27,131.16,58.83,132.34Z"/></clipPath><clipPath id="clip-path-2"><path class="cls-1" d="M126.84,150.31c-2.45-6.32-5.35-10.35-8.44-13.16a28.38,28.38,0,0,0-6.21-4.23c-2.82-1.46-5.67-2.54-8.42-3.92-2.24,7.13-4.53,14.25-7,21.31h30Z"/></clipPath></defs><g id="OBJECTS"><path class="cls-2" d="M92.88,106.79l-14.94-.18-1,.18a26.1,26.1,0,0,1-.8,11.33H93.68A26.1,26.1,0,0,1,92.88,106.79Z"/><path class="cls-3" d="M58.83,132.34a33.64,33.64,0,0,0-5.26,3.1C49.69,138.28,46,142.58,43,150.31h30c-2.43-7.06-4.72-14.18-7-21.3C63.73,130.2,61.27,131.16,58.83,132.34Z"/><path class="cls-4" d="M99.41,126.37a16.26,16.26,0,0,1-5.73-8.25H76.19a16.24,16.24,0,0,1-5.72,8.25A30.41,30.41,0,0,1,66.1,129c2.25,7.12,4.54,14.24,7,21.3H96.8c2.44-7.06,4.73-14.18,7-21.31A29.37,29.37,0,0,1,99.41,126.37Z"/><path class="cls-3" d="M126.84,150.31c-2.45-6.32-5.35-10.35-8.44-13.16a28.38,28.38,0,0,0-6.21-4.23c-2.82-1.46-5.67-2.54-8.42-3.92-2.24,7.13-4.53,14.25-7,21.31h30Z"/><g class="cls-5"><path class="cls-6" d="M41.45,133.27c0,.95.19,1.88.13,2.82,0,.33.93.55,1,.33,0-.95-.17-1.88-.14-2.83,0-.32-.94-.54-.94-.32Z"/><path class="cls-6" d="M45.43,137c0,.94.19,1.88.13,2.82,0,.19.32.28.45.3s.52.09.53-.09c.06-.94-.17-1.87-.13-2.82,0-.19-.31-.27-.45-.3s-.52-.09-.53.09Z"/><path class="cls-6" d="M49.42,133.44c0,.94.19,1.88.13,2.82,0,.26,1,.25,1,0,.06-.94-.17-1.88-.13-2.82,0-.18-.41-.18-.51-.18s-.48,0-.49.23Z"/><path class="cls-6" d="M41.42,142c0,1,.19,1.88.14,2.82,0,.18.35.24.47.25s.51,0,.52-.15c.06-1-.17-1.88-.13-2.82,0-.19-.36-.24-.48-.25s-.51,0-.52.15Z"/><path class="cls-6" d="M45.43,145.66c0,.94.19,1.87.13,2.82,0,.18.32.27.45.3s.52.09.53-.09c.06-.95-.17-1.88-.13-2.82,0-.19-.31-.28-.45-.3s-.52-.09-.53.09Z"/><path class="cls-6" d="M49.42,142.06c0,.95.19,1.88.13,2.83,0,.26,1,.25,1,0,.06-1-.17-1.88-.13-2.83,0-.17-.41-.18-.51-.17s-.48,0-.49.22Z"/><path class="cls-6" d="M53.43,137c0,.94.19,1.88.13,2.82,0,.19.31.28.45.3s.52.09.53-.09c.06-.94-.17-1.87-.13-2.82,0-.19-.31-.27-.45-.3s-.52-.09-.53.09Z"/><path class="cls-6" d="M57.42,133.44c0,.94.19,1.88.13,2.82,0,.26,1,.25,1,0,.06-.94-.17-1.88-.13-2.82,0-.18-.41-.18-.51-.18s-.49,0-.49.23Z"/><path class="cls-6" d="M53.43,145.66c0,.94.19,1.87.13,2.82,0,.18.31.27.45.3s.52.09.53-.09c.06-.95-.17-1.88-.13-2.82,0-.19-.31-.28-.45-.3s-.52-.09-.53.09Z"/><path class="cls-6" d="M57.42,142.06c0,.95.19,1.88.13,2.83,0,.26,1,.25,1,0,.06-1-.17-1.88-.13-2.83,0-.17-.41-.18-.51-.17s-.49,0-.49.22Z"/><path class="cls-6" d="M41.42,150.28c0,.94.19,1.88.14,2.82,0,.18.35.24.47.25s.51,0,.52-.15c.06-.95-.17-1.88-.13-2.82,0-.19-.36-.24-.48-.25s-.51,0-.52.15Z"/><path class="cls-6" d="M45.43,153.93c0,.94.19,1.87.13,2.82,0,.18.32.27.45.3s.52.09.53-.09c.06-1-.17-1.88-.13-2.82,0-.19-.31-.28-.45-.31s-.52-.08-.53.1Z"/><path class="cls-6" d="M49.42,150.33c0,.95.19,1.88.13,2.83,0,.25,1,.25,1,0,.06-1-.17-1.88-.13-2.83,0-.17-.41-.18-.51-.17s-.48,0-.49.22Z"/><path class="cls-6" d="M53.43,153.93c0,.94.19,1.87.13,2.82,0,.18.31.27.45.3s.52.09.53-.09c.06-1-.17-1.88-.13-2.82,0-.19-.31-.28-.45-.31s-.52-.08-.53.1Z"/><path class="cls-6" d="M57.42,150.33c0,.95.19,1.88.13,2.83,0,.25,1,.25,1,0,.06-1-.17-1.88-.13-2.83,0-.17-.41-.18-.51-.17s-.49,0-.49.22Z"/><path class="cls-6" d="M61.43,137c0,.94.19,1.88.13,2.82,0,.19.31.28.45.3s.52.09.53-.09c.06-.94-.17-1.87-.13-2.82,0-.19-.31-.27-.45-.3s-.53-.09-.53.09Z"/><path class="cls-6" d="M65.42,133.44c0,.94.19,1.88.13,2.82,0,.26,1,.25,1,0,.06-.94-.17-1.88-.13-2.82,0-.18-.41-.18-.51-.18s-.49,0-.49.23Z"/><path class="cls-6" d="M61.43,145.66c0,.94.19,1.87.13,2.82,0,.18.31.27.45.3s.52.09.53-.09c.06-.95-.17-1.88-.13-2.82,0-.19-.31-.28-.45-.3s-.53-.09-.53.09Z"/><path class="cls-6" d="M65.42,142.06c0,.95.19,1.88.13,2.83,0,.26,1,.25,1,0,.06-1-.17-1.88-.13-2.83,0-.17-.41-.18-.51-.17s-.49,0-.49.22Z"/><path class="cls-6" d="M69.43,137c0,.94.19,1.88.13,2.82,0,.19.31.28.45.3s.52.09.53-.09c.06-.94-.17-1.87-.14-2.82,0-.19-.3-.27-.44-.3s-.53-.09-.53.09Z"/><path class="cls-6" d="M73.42,133.44c0,.94.19,1.88.13,2.82,0,.26,1,.25,1,0,.06-.94-.17-1.88-.14-2.82,0-.18-.4-.18-.51-.18s-.48,0-.48.23Z"/><path class="cls-6" d="M69.43,145.66c0,.94.19,1.87.13,2.82,0,.18.31.27.45.3s.52.09.53-.09c.06-.95-.17-1.88-.14-2.82,0-.19-.3-.28-.44-.3s-.53-.09-.53.09Z"/><path class="cls-6" d="M73.42,142.06c0,.95.19,1.88.13,2.83,0,.26,1,.25,1,0,.06-1-.17-1.88-.14-2.83,0-.17-.4-.18-.51-.17s-.48,0-.48.22Z"/><path class="cls-6" d="M61.43,153.93c0,.94.19,1.87.13,2.82,0,.18.31.27.45.3s.52.09.53-.09c.06-1-.17-1.88-.13-2.82,0-.19-.31-.28-.45-.31s-.53-.08-.53.1Z"/><path class="cls-6" d="M65.42,150.33c0,.95.19,1.88.13,2.83,0,.25,1,.25,1,0,.06-1-.17-1.88-.13-2.83,0-.17-.41-.18-.51-.17s-.49,0-.49.22Z"/><path class="cls-6" d="M69.43,153.93c0,.94.19,1.87.13,2.82,0,.18.31.27.45.3s.52.09.53-.09c.06-1-.17-1.88-.14-2.82,0-.19-.3-.28-.44-.31s-.53-.08-.53.1Z"/><path class="cls-6" d="M73.42,150.33c0,.95.19,1.88.13,2.83,0,.25,1,.25,1,0,.06-1-.17-1.88-.14-2.83,0-.17-.4-.18-.51-.17s-.48,0-.48.22Z"/><path class="cls-6" d="M45.43,128.76c0,1,.19,1.88.13,2.82,0,.19.32.28.45.3s.52.09.53-.09c.06-.94-.17-1.87-.13-2.82,0-.18-.31-.27-.45-.3s-.52-.09-.53.09Z"/><path class="cls-6" d="M53.43,128.76c0,1,.19,1.88.13,2.82,0,.19.31.28.45.3s.52.09.53-.09c.06-.94-.17-1.87-.13-2.82,0-.18-.31-.27-.45-.3s-.52-.09-.53.09Z"/><path class="cls-6" d="M61.43,128.76c0,1,.19,1.88.13,2.82,0,.19.31.28.45.3s.52.09.53-.09c.06-.94-.17-1.87-.13-2.82,0-.18-.31-.27-.45-.3s-.53-.09-.53.09Z"/><path class="cls-6" d="M69.43,128.76c0,1,.19,1.88.13,2.82,0,.19.31.28.45.3s.52.09.53-.09c.06-.94-.17-1.87-.14-2.82,0-.18-.3-.27-.44-.3s-.53-.09-.53.09Z"/></g><path class="cls-1" d="M58.83,132.34a33.64,33.64,0,0,0-5.26,3.1C49.69,138.28,46,142.58,43,150.31h30c-2.43-7.06-4.72-14.18-7-21.3C63.73,130.2,61.27,131.16,58.83,132.34Z"/><g class="cls-7"><path class="cls-6" d="M95.71,133.47c0,.95.19,1.88.14,2.83,0,.06.11.11.15.12a.74.74,0,0,0,.36,0c.14,0,.47,0,.48-.23.06-.95-.17-1.88-.13-2.83,0-.26-1-.22-1,.08Z"/><path class="cls-6" d="M99.72,137c0,.94.19,1.88.14,2.82,0,.19.31.28.44.3s.52.09.53-.09c.06-.94-.17-1.87-.13-2.82,0-.19-.31-.27-.45-.3s-.52-.09-.53.09Z"/><path class="cls-6" d="M103.71,133.44c0,.94.19,1.88.14,2.82,0,.26,1,.25,1,0,.06-.94-.17-1.88-.13-2.82,0-.18-.4-.18-.51-.18s-.48,0-.49.23Z"/><path class="cls-6" d="M95.71,142c0,1,.2,1.88.14,2.82,0,.18.36.24.48.25s.5,0,.51-.15c.06-1-.17-1.88-.13-2.82,0-.19-.35-.24-.48-.25s-.51,0-.52.15Z"/><path class="cls-6" d="M99.72,145.66c0,.94.19,1.87.14,2.82,0,.18.31.27.44.3s.52.09.53-.09c.06-.95-.17-1.88-.13-2.82,0-.19-.31-.28-.45-.3s-.52-.09-.53.09Z"/><path class="cls-6" d="M103.71,142.06c0,.95.19,1.88.14,2.83,0,.26,1,.25,1,0,.06-1-.17-1.88-.13-2.83,0-.17-.4-.18-.51-.17s-.48,0-.49.22Z"/><path class="cls-6" d="M107.72,137c0,.94.19,1.88.14,2.82,0,.19.31.28.44.3s.52.09.53-.09c.06-.94-.17-1.87-.13-2.82,0-.19-.31-.27-.45-.3s-.52-.09-.53.09Z"/><path class="cls-6" d="M111.71,133.44c0,.94.19,1.88.13,2.82,0,.26,1,.25,1,0,.06-.94-.17-1.88-.13-2.82,0-.18-.41-.18-.51-.18s-.48,0-.49.23Z"/><path class="cls-6" d="M107.72,145.66c0,.94.19,1.87.14,2.82,0,.18.31.27.44.3s.52.09.53-.09c.06-.95-.17-1.88-.13-2.82,0-.19-.31-.28-.45-.3s-.52-.09-.53.09Z"/><path class="cls-6" d="M111.71,142.06c0,.95.19,1.88.13,2.83,0,.26,1,.25,1,0,.06-1-.17-1.88-.13-2.83,0-.17-.41-.18-.51-.17s-.48,0-.49.22Z"/><path class="cls-6" d="M95.71,150.28c0,.94.2,1.88.14,2.82,0,.18.36.24.48.25s.5,0,.51-.15c.06-.95-.17-1.88-.13-2.82,0-.19-.35-.24-.48-.25s-.51,0-.52.15Z"/><path class="cls-6" d="M99.72,153.93c0,.94.19,1.87.14,2.82,0,.18.31.27.44.3s.52.09.53-.09c.06-1-.17-1.88-.13-2.82,0-.19-.31-.28-.45-.31s-.52-.08-.53.1Z"/><path class="cls-6" d="M103.71,150.33c0,.95.19,1.88.14,2.83,0,.25,1,.25,1,0,.06-1-.17-1.88-.13-2.83,0-.17-.4-.18-.51-.17s-.48,0-.49.22Z"/><path class="cls-6" d="M107.72,153.93c0,.94.19,1.87.14,2.82,0,.18.31.27.44.3s.52.09.53-.09c.06-1-.17-1.88-.13-2.82,0-.19-.31-.28-.45-.31s-.52-.08-.53.1Z"/><path class="cls-6" d="M111.71,150.33c0,.95.19,1.88.13,2.83,0,.25,1,.25,1,0,.06-1-.17-1.88-.13-2.83,0-.17-.41-.18-.51-.17s-.48,0-.49.22Z"/><path class="cls-6" d="M115.72,137c0,.94.19,1.88.13,2.82,0,.19.31.28.45.3s.52.09.53-.09c.06-.94-.17-1.87-.13-2.82,0-.19-.31-.27-.45-.3s-.52-.09-.53.09Z"/><path class="cls-6" d="M119.71,133.44c0,.94.19,1.88.13,2.82,0,.26,1,.25,1,0,.06-.94-.17-1.88-.13-2.82,0-.18-.41-.18-.51-.18s-.48,0-.49.23Z"/><path class="cls-6" d="M115.72,145.66c0,.94.19,1.87.13,2.82,0,.18.31.27.45.3s.52.09.53-.09c.06-.95-.17-1.88-.13-2.82,0-.19-.31-.28-.45-.3s-.52-.09-.53.09Z"/><path class="cls-6" d="M119.71,142.06c0,.95.19,1.88.13,2.83,0,.26,1,.25,1,0,.06-1-.17-1.88-.13-2.83,0-.17-.41-.18-.51-.17s-.48,0-.49.22Z"/><path class="cls-6" d="M123.72,137c0,.94.19,1.88.13,2.82,0,.19.31.28.45.3s.52.09.53-.09c.06-.94-.17-1.87-.13-2.82,0-.19-.31-.27-.45-.3s-.52-.09-.53.09Z"/><path class="cls-6" d="M127.71,133.44c0,.94.19,1.88.13,2.82,0,.26,1,.25,1,0,.06-.94-.17-1.88-.13-2.82,0-.18-.41-.18-.51-.18s-.49,0-.49.23Z"/><path class="cls-6" d="M123.72,145.66c0,.94.19,1.87.13,2.82,0,.18.31.27.45.3s.52.09.53-.09c.06-.95-.17-1.88-.13-2.82,0-.19-.31-.28-.45-.3s-.52-.09-.53.09Z"/><path class="cls-6" d="M127.71,142.06c0,.95.19,1.88.13,2.83,0,.26,1,.25,1,0,.06-1-.17-1.88-.13-2.83,0-.17-.41-.18-.51-.17s-.49,0-.49.22Z"/><path class="cls-6" d="M115.72,153.93c0,.94.19,1.87.13,2.82,0,.18.31.27.45.3s.52.09.53-.09c.06-1-.17-1.88-.13-2.82,0-.19-.31-.28-.45-.31s-.52-.08-.53.1Z"/><path class="cls-6" d="M119.71,150.33c0,.95.19,1.88.13,2.83,0,.25,1,.25,1,0,.06-1-.17-1.88-.13-2.83,0-.17-.41-.18-.51-.17s-.48,0-.49.22Z"/><path class="cls-6" d="M123.72,153.93c0,.94.19,1.87.13,2.82,0,.18.31.27.45.3s.52.09.53-.09c.06-1-.17-1.88-.13-2.82,0-.19-.31-.28-.45-.31s-.52-.08-.53.1Z"/><path class="cls-6" d="M127.71,150.33c0,.95.19,1.88.13,2.83,0,.25,1,.25,1,0,.06-1-.17-1.88-.13-2.83,0-.17-.41-.18-.51-.17s-.49,0-.49.22Z"/><path class="cls-6" d="M99.72,128.76c0,1,.19,1.88.14,2.82,0,.19.31.28.44.3s.52.09.53-.09c.06-.94-.17-1.87-.13-2.82,0-.18-.31-.27-.45-.3s-.52-.09-.53.09Z"/><path class="cls-6" d="M107.72,128.76c0,1,.19,1.88.14,2.82,0,.19.31.28.44.3s.52.09.53-.09c.06-.94-.17-1.87-.13-2.82,0-.18-.31-.27-.45-.3s-.52-.09-.53.09Z"/><path class="cls-6" d="M115.72,128.76c0,1,.19,1.88.13,2.82,0,.19.31.28.45.3s.52.09.53-.09c.06-.94-.17-1.87-.13-2.82,0-.18-.31-.27-.45-.3s-.52-.09-.53.09Z"/><path class="cls-6" d="M123.72,128.76c0,1,.19,1.88.13,2.82,0,.19.31.28.45.3s.52.09.53-.09c.06-.94-.17-1.87-.13-2.82,0-.18-.31-.27-.45-.3s-.52-.09-.53.09Z"/></g><path class="cls-1" d="M126.84,150.31c-2.45-6.32-5.35-10.35-8.44-13.16a28.38,28.38,0,0,0-6.21-4.23c-2.82-1.46-5.67-2.54-8.42-3.92-2.24,7.13-4.53,14.25-7,21.31h30Z"/><path class="cls-2" d="M121,83c-.22-2.56-1.27-4.71-4.25-4A5.36,5.36,0,0,0,115,80c.38-2.09.68-4.22.87-6.38C117.76,52.44,112.51,31,85.25,31h-.63C57.36,31,52.12,52.44,54,73.59q.3,3.24.87,6.38a5.27,5.27,0,0,0-1.83-1c-3-.69-4,1.46-4.24,4C48.44,87.64,51.52,92,56,94.21a13.35,13.35,0,0,0,3.93,1c5,9.82,13.29,16.41,25,15.81,11.75.6,20-6,25-15.81a13.27,13.27,0,0,0,3.92-1C118.35,92,121.43,87.64,121,83Z"/><path d="M62.19,61.94a10.12,10.12,0,0,1,2.25-2.67,8.65,8.65,0,0,1,3.17-1.68,12.06,12.06,0,0,1,3.45-.44,9.45,9.45,0,0,1,3.43.58c-1.12.39-2.18.69-3.24,1s-2.11.53-3.09.8a20.14,20.14,0,0,0-2.88,1.08C64.31,61,63.32,61.55,62.19,61.94Z"/><path d="M92.37,90.13c-8.51,7-14.68,0-14.68,0Z"/><path class="cls-8" d="M72.68,84.42c0,2.13-2.69,3.85-6,3.85s-6-1.72-6-3.85,2.69-3.84,6-3.84S72.68,82.3,72.68,84.42Z"/><path d="M107.68,61.94c-1.12-.39-2.11-.91-3.09-1.35a19.7,19.7,0,0,0-2.88-1.08c-1-.27-2-.52-3.09-.8s-2.12-.59-3.23-1a9.43,9.43,0,0,1,3.42-.58,12.08,12.08,0,0,1,3.46.44,8.81,8.81,0,0,1,3.17,1.68A10.08,10.08,0,0,1,107.68,61.94Z"/><path class="cls-8" d="M97.2,84.42c0,2.13,2.68,3.85,6,3.85s6-1.72,6-3.85-2.68-3.84-6-3.84S97.2,82.3,97.2,84.42Z"/><path d="M52.27,84.14a4.08,4.08,0,0,1,2.07,1,8.61,8.61,0,0,1,1.54,1.71,9.21,9.21,0,0,1,1.06,2,21.79,21.79,0,0,1,.65,2.17,9.33,9.33,0,0,1-1.35-1.82c-.4-.63-.75-1.24-1.18-1.82s-.83-1.17-1.28-1.74A9,9,0,0,0,52.27,84.14Z"/><path d="M117.6,84.14a9.36,9.36,0,0,0-1.51,1.58c-.44.57-.88,1.14-1.28,1.74s-.77,1.19-1.17,1.82a9.81,9.81,0,0,1-1.36,1.82,19.46,19.46,0,0,1,.66-2.17,8.77,8.77,0,0,1,1-2,8.93,8.93,0,0,1,1.54-1.71A4.08,4.08,0,0,1,117.6,84.14Z"/><path d="M84.86,69.88c.25,1.6.43,3.21.54,4.82.07.81.11,1.61.16,2.42,0,.39,0,.84.07,1.16a1,1,0,0,0,.29.69c.34.24,1.39,0,2.3.44a2.59,2.59,0,0,1,.61.43c.09.12.18.23.26.35a3,3,0,0,1,.14.42A2.09,2.09,0,0,1,88.87,82,5.78,5.78,0,0,1,87,83.8a4.08,4.08,0,0,1-2.34.74,4.46,4.46,0,0,0,2-1.13,6.09,6.09,0,0,0,1.44-1.75,1.46,1.46,0,0,0,.18-.88l-.06-.15a.69.69,0,0,1-.11-.13,2,2,0,0,0-.39-.24,2.62,2.62,0,0,0-1-.17,3.07,3.07,0,0,1-1.43-.27,1.91,1.91,0,0,1-.73-1.42c0-.47,0-.84,0-1.25,0-.81,0-1.62,0-2.42C84.64,73.11,84.72,71.49,84.86,69.88Z"/><path d="M106.61,74.19a13.36,13.36,0,0,1-2.69,1,22.49,22.49,0,0,1-5.57.81,13.4,13.4,0,0,1-2.87-.21,12.79,12.79,0,0,1,2.69-1,20.21,20.21,0,0,1,2.76-.58,21.88,21.88,0,0,1,2.81-.23A13.36,13.36,0,0,1,106.61,74.19Z"/><path d="M63.45,74.19A13.31,13.31,0,0,1,66.32,74a21.88,21.88,0,0,1,2.81.23,20.21,20.21,0,0,1,2.76.58,12.79,12.79,0,0,1,2.69,1,13.4,13.4,0,0,1-2.87.21,22.49,22.49,0,0,1-5.57-.81A13.36,13.36,0,0,1,63.45,74.19Z"/><path d="M43.33,54.48c.26-5.35,3-10.35,6.05-14.89l.6-1.35c2.21-4.81,10.22-12.89,23.64-11.58.77-.23,1.52-.43,2.26-.62a20.14,20.14,0,0,1,5.4-1.52,38.7,38.7,0,0,1,16.32,0c4.62,1.07,8.52,3.31,13,4.84,3.14,1.08,7.57,1.91,10.61.11.69,2.42-2.57,3-4.13,3.7,6.91,2.37,14.34,12.35,13.9,19.84-.12-1.86-1.74-4.36-3.64-4.62.18,3.52,2.2,6.84,1.85,10.66-.73-1-1.12-2.37-2.28-3-.1,2.45.09,3.9-1.44,6-.28.38-.56.77-.82,1.15A11.36,11.36,0,0,0,129.28,69a25,25,0,0,1-2.86-.73c-.48,1.41,1.36,3.68,2.71,4.28-1.56-.07-2.92-1.14-4.3-1.66-1.09,2-1.94,4-4,5.3a5.86,5.86,0,0,0,.89-2.24,23.19,23.19,0,0,1-4.41,4,14.71,14.71,0,0,1-5,4.61c1.31-5.77.76-17.17-2.12-22.68-6-11.34-14.33-5.08-19.63-11.95.63,6,1.66,9.85,4.22,13.28-5.1-2.58-13-9-13.6-15.6.06,4.72.47,7.74,3.47,12.17-6.42-2.5-9.18-4.65-12.24-9.63-.34-.55-.64-1.1-.93-1.65-3.35,5.92-7.83,11.14-11.87,13.38.64-.93.55-6.85,1.1-7.85-3.08,4.2-4.47,12.86-4.47,18,0,3.41-.35,9.1.23,12.53a40.6,40.6,0,0,1-3-3.28,7.15,7.15,0,0,1,.1,2.85c-1.19-.33-4.56-4.17-4.35-5.34-1,1-1.57,2.66-3,3,.8-1.83,2.23-2.82,2.24-5a8.4,8.4,0,0,0-1.88-5.1c.08.28.14.53.19.79-.35-1.2-1.28-2.4-1.72-3.54a14,14,0,0,1-.68-5.34c-.15,1.42-.32,2.85-.43,4.29C42.36,63.06,43.18,57.51,43.33,54.48Z"/><path class="cls-9" d="M57.9,93.32c-.6,0-2.74,4.06-3.32,6.31-.34,1.29,1.44,9.92,2.57,10.33,1,0,3.26-7.4,3.47-8.31C60.94,100.22,58.87,93.7,57.9,93.32Z"/><path class="cls-9" d="M112,93.32c.6,0,2.73,4.06,3.32,6.31.33,1.29-1.45,9.92-2.57,10.33-1,0-3.27-7.4-3.48-8.31C108.93,100.22,111,93.7,112,93.32Z"/></g></svg>