<svg xmlns="http://www.w3.org/2000/svg" viewBox="0 0 173.94 173.94"><defs><style>.cls-1{fill:#056d63;}.cls-2{fill:#c3e2a8;}.cls-2,.cls-3{stroke:#000;}.cls-2,.cls-5{stroke-miterlimit:10;}.cls-3{fill:#fff;stroke-linecap:round;stroke-linejoin:round;}.cls-4{fill:#bc4940;opacity:0.15;}.cls-5{fill:none;stroke:#fff;}</style></defs><g id="OBJECTS"><path class="cls-1" d="M133.08,113.62c-1.47-9.73-3.41-19.38-4.25-29.14.06-5.21.15-10.66-.14-16l-.11,1c.24-10-2.38-22.4-10.59-28.68-7.81-6-15.49-9.22-25.42-9.38A89.48,89.48,0,0,0,75,32.5C67.14,33.94,58,37.87,53,44.34,47.69,51.34,47,61.53,47,70c-.06,9.6.74,19.46-2.22,28.6-1.18,3.64-2.94,7.1-3.81,10.83a23.6,23.6,0,0,0,1,13.78,7.08,7.08,0,0,1,2.13-5c-1.1,1.07.37,6.67.72,8a25.38,25.38,0,0,0,3.51,7.73c2.59,3.85,6.94,8.41,11,10.63,11.1,6,24.46,5.17,36.62,4.38,5.32-.34,10.76-.71,15.64-2.85,8.57-3.75,14.12-12.5,16.36-21.59.15-.62.27-1.24.4-1.87,0-.2.1-.41.13-.61s0-.22.07-.33c.1-.52.16-1,.24-1.55l2.57,7.38C134.23,123.69,133.79,118.37,133.08,113.62Z"/><path class="cls-1" d="M77.75,40.23c-5,1.51-9.6-2.22-10.63-6.94-1.38-6.39,3.6-12.35,8.77-15.2C91.59,9.43,114.28,41.34,77.75,40.23Z"/><path class="cls-2" d="M123.47,147.5c-3.24.5-6.58.93-10,1.3-.77.09-4.21.48-4.75.48-17.19,1.55-35.3,1.48-48.05-.53,1.51.24-6.88-1.3-9.5-2.21A37,37,0,0,0,45,157.34h83.81A38.62,38.62,0,0,0,123.47,147.5Zm-10,1.3c-1.57.18-3.16.33-4.75.48C110.32,149.13,111.91,149,113.48,148.8Z"/><path class="cls-3" d="M65.42,149.39c12.29,1.36,28.15,1.26,43.31-.11l4.75-.48c3.41-.37,6.75-.8,10-1.3a27.77,27.77,0,0,0-10.6-8.2s-9.28-4.28-11.47-5.91c-8.91-6.64-6.52-19.57-6.52-19.57l-14.94-.18-1,.18s2.39,12.93-6.53,19.57a34.09,34.09,0,0,1-6.58,3.7l-4.59,2.07a28.41,28.41,0,0,0-10.11,7.38,56,56,0,0,0,9.5,2.21Z"/><path d="M74.73,131.07c1.51,3.54,3.38,7.31,6.36,9.87a8,8,0,0,0,6.19,2.14c4.23-.53,7.45-4.35,9.68-7.67A26.61,26.61,0,0,0,99.43,131c.25-.6-.72-.86-1-.27,0-.11-.07.15-.09.2l-.17.36c-.13.28-.28.56-.42.84-.38.71-.78,1.4-1.21,2.08a25.92,25.92,0,0,1-3.68,4.67A11.17,11.17,0,0,1,88,141.92a6.6,6.6,0,0,1-5.66-1.24c-3.28-2.4-5.23-6.49-6.78-10.12-.25-.59-1.11-.08-.86.51Z"/><path d="M86.52,142.05a3.09,3.09,0,0,0-2.16,3,2.72,2.72,0,0,0,1.77,2.6,2.66,2.66,0,0,0,3.07-1.06,3.44,3.44,0,0,0,.08-3.05,2.33,2.33,0,0,0-2.76-1.45.5.5,0,0,0,.26,1l.17,0,.06,0c.07,0-.09,0,0,0h.29c.07,0-.08,0,0,0l.13,0,.12,0c-.11,0,0,0,0,0l.13.08.06,0,.07,0,.1.11a.52.52,0,0,1,.1.11c.06.06,0-.07,0,0s.11.16.16.25,0,.09.07.14.06.14,0,.08,0,.07,0,.09a.88.88,0,0,1,0,.15c0,.1.06.2.08.3s0,.09,0,.14,0,.1,0,0a.19.19,0,0,1,0,.08,4.14,4.14,0,0,1,0,.61c0,.09,0,0,0,0s0,.06,0,.08l0,.14a2.29,2.29,0,0,1-.08.28l0,.08s0-.1,0,0l-.06.12a1.28,1.28,0,0,1-.15.25c.07-.1,0,0,0,0a.47.47,0,0,1-.1.1s-.11.09,0,0a.51.51,0,0,1-.13.09l-.14.08-.06,0h0l-.34.1a1.55,1.55,0,0,1-.31,0,1.45,1.45,0,0,1-.36,0c.1,0-.07,0-.1,0l-.15,0-.14,0-.07,0-.15-.09-.08-.06-.08-.06-.11-.12-.06-.06a1,1,0,0,1-.08-.11,1.51,1.51,0,0,1-.15-.28c0-.08,0,0,0,0l0-.08a.78.78,0,0,1,0-.14,2.82,2.82,0,0,1-.07-.31c0-.09,0,0,0,0a.41.41,0,0,1,0-.11,1,1,0,0,1,0-.17v-.2s0-.19,0-.08a2.21,2.21,0,0,1,.08-.37l.06-.17s0-.1,0,0,0-.07,0-.06a2,2,0,0,1,.18-.32l.06-.08,0,0,.13-.14.17-.15,0,0,.08-.06a2,2,0,0,1,.56-.28C87.39,142.82,87.13,141.86,86.52,142.05Z"/><path class="cls-3" d="M123,90.05c-.21-2.56-1.26-4.71-4.24-4A5.27,5.27,0,0,0,117,87q.57-3.14.87-6.38C119.75,59.47,114.51,38,87.25,38h-.63C59.36,38,54.11,59.47,56,80.62c.19,2.16.49,4.29.87,6.38a5.36,5.36,0,0,0-1.83-1c-3-.69-4,1.46-4.25,4C50.44,94.67,53.52,99,58,101.24a13.27,13.27,0,0,0,3.92,1C66.94,112,75.18,118.62,86.93,118c11.76.6,20-6,25-15.81a13.35,13.35,0,0,0,3.93-1C120.35,99,123.43,94.67,123,90.05Z"/><path d="M85.26,93a5.74,5.74,0,0,0,2.15.32,2.15,2.15,0,0,0,.92-.25,1,1,0,0,0,.45-.68,6.43,6.43,0,0,0,0-2.06c-.07-.71-.19-1.44-.31-2.17-.2-1.53-.32-3-.42-4.47s-.15-3-.12-4.47c.36,1.45.66,2.92.9,4.39s.42,3,.63,4.4a10.52,10.52,0,0,1,0,4.61,1.68,1.68,0,0,1-.89,1,2.45,2.45,0,0,1-1.24.15A4.92,4.92,0,0,1,85.26,93Z"/><path d="M64.19,71a8.22,8.22,0,0,1,2-3,8,8,0,0,1,3.24-1.83A10.3,10.3,0,0,1,73,65.79a7.73,7.73,0,0,1,3.47,1,21.18,21.18,0,0,1-3.18,1.37c-1,.35-2.07.63-3,.89s-1.84.56-2.81.93A19.78,19.78,0,0,1,64.19,71Z"/><path d="M94.37,97.16c-.48.49-1,1-1.52,1.41a14.62,14.62,0,0,1-1.77,1.11A9.59,9.59,0,0,1,87,100.75a8.88,8.88,0,0,1-7.31-3.59,13.23,13.23,0,0,0,3.49,2,10.09,10.09,0,0,0,3.79.65,7.61,7.61,0,0,0,1-.08l.49-.05.47-.11c.31-.08.64-.12,1-.23l.92-.32c.63-.21,1.2-.56,1.83-.81S93.74,97.47,94.37,97.16Z"/><path class="cls-4" d="M74.67,91.45c0,2.13-2.68,3.85-6,3.85s-6-1.72-6-3.85,2.68-3.84,6-3.84S74.67,89.33,74.67,91.45Z"/><path d="M109.67,71a19.66,19.66,0,0,1-3.29-1c-1-.37-1.87-.65-2.81-.93s-2-.54-3-.89a21.27,21.27,0,0,1-3.19-1.37,7.8,7.8,0,0,1,3.48-1,10.24,10.24,0,0,1,3.54.35A8,8,0,0,1,109.67,71Z"/><path class="cls-4" d="M99.19,91.45c0,2.13,2.69,3.85,6,3.85s6-1.72,6-3.85-2.69-3.84-6-3.84S99.19,89.33,99.19,91.45Z"/><path d="M54.27,91.17a4.08,4.08,0,0,1,2.07,1,9,9,0,0,1,1.54,1.71,8.77,8.77,0,0,1,1,2,19.46,19.46,0,0,1,.66,2.17,10.15,10.15,0,0,1-1.36-1.82c-.4-.63-.75-1.24-1.17-1.82s-.84-1.17-1.28-1.74A9.36,9.36,0,0,0,54.27,91.17Z"/><path d="M119.59,91.17a9.77,9.77,0,0,0-1.51,1.58c-.44.57-.87,1.14-1.27,1.74s-.78,1.19-1.18,1.82a10.09,10.09,0,0,1-1.35,1.82,19.43,19.43,0,0,1,.65-2.17,9.61,9.61,0,0,1,1-2,8.69,8.69,0,0,1,1.55-1.71A4.09,4.09,0,0,1,119.59,91.17Z"/><path d="M73.39,83a2.62,2.62,0,1,1,0-3.7A2.62,2.62,0,0,1,73.39,83Z"/><path d="M100.5,83a2.62,2.62,0,1,0,0-3.7A2.62,2.62,0,0,0,100.5,83Z"/><path class="cls-1" d="M118.67,67.73c-.66-5-.62-10-2-14.78-1.32-4.58-10.11-13.07-17.7-14.43q0-1.35-.09-2.76c-14.22-2.23-26.81-1.95-36.51,4.44-6,4-8.93,11.42-10.42,18.25-1.57,7.19-2.06,13.24,1.1,20,1.38,3,3.19,10.17,6.55,10.17.69-12.1,0-21.85,9.13-31.21-2.2,3.3-3,7.83-4.49,11.47a65.19,65.19,0,0,0,9.93-5.6,51.22,51.22,0,0,0,11.07-9.71,28.72,28.72,0,0,1-2.73,6.73c-1.18,2.06-4.34,6.46-4.34,6.46,10.79-5,16.77-11,19.31-18.46a27.42,27.42,0,0,0,1.62,4.46c1.86,3.87,6.36,10.06,11.14,10.25a12.89,12.89,0,0,1-1.52-5.16c.3,2.51,2.37,5.24,3,7.81.85,3.44,1.35,7,1.88,10.5.67,4.4,1.7,8.78,2.63,13.1.85-.64,1.72-6.93,2.22-9.09A33.56,33.56,0,0,0,118.67,67.73Z"/><path class="cls-5" d="M62.68,106.1c0,3.22-1.89,5.83-4.21,5.83s-4.2-2.61-4.2-5.83,1.88-5.83,4.2-5.83S62.68,102.88,62.68,106.1Z"/><path class="cls-5" d="M119.4,106.1c0,3.22-1.88,5.83-4.2,5.83S111,109.32,111,106.1s1.89-5.83,4.21-5.83S119.4,102.88,119.4,106.1Z"/></g></svg>